<?xml version="1.0" standalone="no"?>
<!DOCTYPE svg PUBLIC "-//W3C//DTD SVG 20010904//EN"
 "http://www.w3.org/TR/2001/REC-SVG-20010904/DTD/svg10.dtd">
<svg version="1.0" xmlns="http://www.w3.org/2000/svg"
 width="260.000000pt" height="260.000000pt" viewBox="0 0 260.000000 260.000000"
 preserveAspectRatio="xMidYMid meet">
<metadata>
Created by potrace 1.14, written by Peter Selinger 2001-2017
</metadata>
<g transform="translate(0.000000,260.000000) scale(0.100000,-0.100000)"
fill="#000000" stroke="none">
<path d="M974 2421 c-10 -10 -35 -36 -54 -57 -20 -21 -80 -88 -135 -149 -55
-60 -102 -112 -105 -115 -49 -48 -110 -122 -110 -134 0 -14 51 -16 473 -16
270 0 478 -4 487 -10 12 -7 14 -129 14 -889 0 -909 1 -915 38 -877 18 18 219
234 242 260 47 52 46 44 46 789 0 533 3 706 12 715 7 7 40 12 78 12 38 1 72 6
83 14 9 7 35 54 57 104 21 50 50 113 64 141 15 28 26 54 26 58 0 5 -51 8 -112
7 -62 0 -123 4 -134 9 -29 12 -44 48 -44 102 0 24 -4 46 -10 50 -5 3 -45 -32
-89 -77 l-80 -83 -331 0 -332 0 -24 28 c-18 21 -24 40 -24 77 0 56 -9 67 -36
41z"/>
<path d="M247 1782 c-3 -6 -2 -788 2 -802 1 -5 287 -5 314 -1 4 0 7 109 7 241
0 185 3 240 13 241 92 5 349 -2 370 -10 66 -25 97 -79 102 -176 4 -71 2 -78
-23 -106 -23 -24 -35 -29 -79 -31 -29 0 -54 -4 -54 -7 -1 -3 -3 -77 -4 -165
l-2 -158 121 4 c104 4 130 8 178 30 65 30 127 88 160 150 22 42 23 51 23 298
l0 255 -27 56 c-35 70 -87 122 -157 157 l-56 27 -442 2 c-243 2 -444 0 -446
-5z"/>
<path d="M2145 1780 c-83 -26 -133 -121 -106 -202 48 -144 241 -154 301 -16
32 75 6 157 -63 203 -29 19 -95 26 -132 15z"/>
<path d="M2120 1281 c-42 -22 -77 -70 -86 -118 -22 -119 102 -220 216 -176
113 45 141 183 54 271 -21 20 -80 42 -116 42 -18 0 -49 -8 -68 -19z"/>
</g>
</svg>
